<?xml version="1.0" encoding="utf-8"?>
<!-- Generator: Adobe Illustrator 24.0.3, SVG Export Plug-In . SVG Version: 6.00 Build 0)  -->
<svg version="1.1" id="Layer_1" xmlns:svgjs="http://svgjs.com/svgjs"
	 xmlns="http://www.w3.org/2000/svg" xmlns:xlink="http://www.w3.org/1999/xlink" x="0px" y="0px" viewBox="0 0 512 512"
	 style="enable-background:new 0 0 512 512;" xml:space="preserve">
<style type="text/css">
	.st0{fill:#A2A2A2;}
</style>
<g>
	<g>
		<g>
			<path class="st0" d="M380.6,348.9L305.7,274c14.5-17.9,23.2-40.7,23.2-65.5c0-57.5-46.8-104.3-104.2-104.3S120.5,151,120.5,208.5
				s46.8,104.3,104.3,104.3c24.8,0,47.6-8.7,65.5-23.2l74.9,74.9c2.2,2.2,4.9,3.2,7.8,3.2s5.6-1.1,7.8-3.2
				C384.9,360.1,384.9,353.2,380.6,348.9z M224.7,290.8c-45.4,0-82.3-36.9-82.3-82.3s36.9-82.3,82.3-82.3s82.3,36.9,82.3,82.3
				S270.1,290.8,224.7,290.8z"/>
		</g>
	</g>
</g>
</svg>
